<svg version="1.1" id="Icons" xmlns="http://www.w3.org/2000/svg" xmlns:xlink="http://www.w3.org/1999/xlink" x="0px" y="0px"
	 viewBox="0 0 32 32" style="enable-background:new 0 0 32 32;" xml:space="preserve">
	<path stroke="currentColor" fill="transparent" d="M23.5,20.2c0-6-4.1-3.5-7.5-3.5c-3.4,0-7.5-2.4-7.5,3.5c0,1.9,1.6,3.5,3.5,3.5h8
		C21.9,23.8,23.5,22.2,23.5,20.2z"/>
	<path stroke="currentColor" fill="transparent" d="M25.5,13.5L25.5,13.5c0,0,2.7-4.5-0.6-7.2c-2,0-5.1,3.3-5.1,3.3l0,0c-2.5-0.7-5.3-0.7-7.8,0
		c0,0-3.1-3.3-5.1-3.3c-3.2,2.6-0.7,7-0.6,7.2c-1,1.5-1.6,3.4-1.4,5.7c0.2,3.1,2.8,6.5,6,6.5h9.9c3.1,0,5.7-3.4,6-6.5
		C27.1,16.9,26.5,15,25.5,13.5z"/>
	<ellipse fill="currentColor" stroke="transparent" cx="19.5" cy="20.2" rx="1" ry="1.5"/>
	<ellipse fill="currentColor" stroke="transparent" cx="12.5" cy="20.2" rx="1" ry="1.5"/>
</svg>
