<svg version="1.1" id="Icons" xmlns="http://www.w3.org/2000/svg" xmlns:xlink="http://www.w3.org/1999/xlink" x="0px" y="0px"
	 viewBox="-281 404.9 32 32" style="enable-background:new -281 404.9 32 32;" xml:space="preserve">
	<path stroke="currentColor" fill="transparent" d="M-270.5,430.8h-5v-13h5V430.8z M-273,415.8L-273,415.8c-1.5,0-2.5-1.2-2.5-2.5c0-1.3,1-2.4,2.5-2.4
		c1.5,0,2.5,1.1,2.5,2.4C-270.4,414.7-271.4,415.8-273,415.8z M-261.5,421.8c-1.1,0-2,0.9-2,2v7h-5c0,0,0.1-12,0-13h5v1.5
		c0,0,1.5-1.4,3.9-1.4c3,0,5.1,2.1,5.1,6.3v6.7h-5v-7C-259.5,422.7-260.4,421.8-261.5,421.8z"/>
</svg>
