<?xml version="1.0" encoding="utf-8"?>
<!-- Generator: Adobe Illustrator 19.0.0, SVG Export Plug-In . SVG Version: 6.00 Build 0)  -->
<svg version="1.1" id="Calque_2" xmlns="http://www.w3.org/2000/svg" xmlns:xlink="http://www.w3.org/1999/xlink" x="0px" y="0px"
	 viewBox="0 0 32 32" style="enable-background:new 0 0 32 32;" xml:space="preserve">
<style type="text/css">
	.st0{fill:none;stroke:#000000;stroke-linecap:round;stroke-linejoin:round;stroke-miterlimit:10;}
</style>
<g>
	<path stroke="currentColor" fill="transparent" stroke-linecap="round" stroke-linejoin="round" stroke-miterlimit="10" d="M14.8,13.8l4.7-7.5C19.7,6.2,19.9,6,20.1,6c0.1,0,0.2,0,0.3,0.1l7.3,3.7C27.9,9.8,28,10,28,10.1
		s-0.1,0.3-0.2,0.4l-7.5,12.2L14.8,13.8z"/>
	<polygon stroke="currentColor" fill="transparent" stroke-linecap="round" stroke-linejoin="round" stroke-miterlimit="10" points="12.5,19.7 12.5,10.1 21,23.9 	"/>
	<path stroke="currentColor" fill="transparent" stroke-linecap="round" stroke-linejoin="round" stroke-miterlimit="10" d="M27.3,26.9c-0.1,0-0.3,0-0.4-0.1L20,23.4l8-13.3V26C28,26.5,27.7,26.9,27.3,26.9z"/>
	<path stroke="currentColor" fill="transparent" stroke-linecap="round" stroke-linejoin="round" stroke-miterlimit="10" d="M11.8,26.5c-0.1,0-0.3,0-0.4-0.1l-6.6-3.3c-0.4-0.2-0.6-0.6-0.6-1V6.7c0-0.2,0.1-0.4,0.2-0.5
		C4.3,6.1,4.5,6,4.7,6C4.8,6,4.9,6,5,6.1l7.2,3.6c0.2,0.1,0.3,0.3,0.3,0.5v15.5C12.5,26.2,12.2,26.5,11.8,26.5z"/>
</g>
</svg>
