<svg version="1.1" id="Icons" xmlns="http://www.w3.org/2000/svg" xmlns:xlink="http://www.w3.org/1999/xlink" x="0px" y="0px"
	 viewBox="0 0 32 32" style="enable-background:new 0 0 32 32;" xml:space="preserve">
<path stroke="currentColor" fill="transparent" d="M27.2,9.3c-0.8,0.4-1.5,0.4-2.2,0c0.9-0.6,1-1,1.3-2c-0.9,0.5-1.9,0.9-2.9,1.1c-0.8-0.9-2-1.4-3.3-1.4
    c-2.5,0-4.5,2-4.5,4.5c0,0.4,0,0.7,0.1,1c-3.8-0.2-7.1-2-9.4-4.7c-0.4,0.7-0.6,1.5-0.6,2.3c0,1.6,0.8,3,2,3.8
    c-0.7,0-1.4-0.2-2.1-0.6c0,0,0,0,0,0.1c0,2.2,1.6,4,3.6,4.5c-0.7,0.2-1.4,0.2-2.1,0.1c0.6,1.8,2.3,3.1,4.2,3.2
    c-1.9,1.5-4.4,2.2-6.7,1.9c2,1.3,4.4,2,7,2c8.4,0,12.9-6.9,12.9-12.9c0-0.2,0-0.4,0-0.6C25.5,10.8,26.6,10.2,27.2,9.3z"/>
</svg>
